<svg width="36" height="42" viewBox="0 0 36 42" fill="none" xmlns="http://www.w3.org/2000/svg">
<path d="M14.02 38.1126C14.02 40.2614 15.8 42 18 42C20.2 42 21.98 40.2614 21.98 38.1126H14.02ZM18 8.7907C23.52 8.7907 28 13.1665 28 18.5581V32.2326H8V18.5581C8 13.1665 12.48 8.7907 18 8.7907ZM18 0C16.34 0 15 1.30884 15 2.93023V5.21581C8.72 6.54419 4 12.014 4 18.5581V30.2791L0 34.186V36.1395H36V34.186L32 30.2791V18.5581C32 12.014 27.28 6.54419 21 5.21581V2.93023C21 1.30884 19.66 0 18 0ZM16 12.6977H20V20.5116H16V12.6977ZM16 24.4186H20V28.3256H16V24.4186Z" fill="#04134B"/>
</svg>
