<svg width="42" height="42" viewBox="0 0 42 42" fill="none" xmlns="http://www.w3.org/2000/svg">
<path d="M27.125 24.5H25.7425L25.2525 24.0275C27.3525 21.5775 28.4375 18.235 27.8425 14.6825C27.02 9.8175 22.96 5.9325 18.06 5.3375C10.6575 4.4275 4.4275 10.6575 5.3375 18.06C5.9325 22.96 9.8175 27.02 14.6825 27.8425C18.235 28.4375 21.5775 27.3525 24.0275 25.2525L24.5 25.7425V27.125L31.9375 34.5625C32.655 35.28 33.8275 35.28 34.545 34.5625C35.2625 33.845 35.2625 32.6725 34.545 31.955L27.125 24.5ZM16.625 24.5C12.2675 24.5 8.75 20.9825 8.75 16.625C8.75 12.2675 12.2675 8.75 16.625 8.75C20.9825 8.75 24.5 12.2675 24.5 16.625C24.5 20.9825 20.9825 24.5 16.625 24.5Z" fill="#04134B"/>
</svg>
