<svg width="42" height="42" viewBox="0 0 42 42" fill="none" xmlns="http://www.w3.org/2000/svg">
<path d="M33.495 22.645C33.565 22.12 33.6 21.5775 33.6 21C33.6 20.44 33.565 19.88 33.4775 19.355L37.03 16.59C37.345 16.345 37.4325 15.8725 37.24 15.5225L33.88 9.7125C33.67 9.3275 33.2325 9.205 32.8475 9.3275L28.665 11.0075C27.79 10.3425 26.8625 9.7825 25.83 9.3625L25.2 4.9175C25.13 4.4975 24.78 4.2 24.36 4.2H17.64C17.22 4.2 16.8875 4.4975 16.8175 4.9175L16.1875 9.3625C15.155 9.7825 14.21 10.36 13.3525 11.0075L9.17 9.3275C8.785 9.1875 8.3475 9.3275 8.1375 9.7125L4.795 15.5225C4.585 15.89 4.655 16.345 5.005 16.59L8.5575 19.355C8.47 19.88 8.4 20.4575 8.4 21C8.4 21.5425 8.435 22.12 8.5225 22.645L4.97 25.41C4.655 25.655 4.5675 26.1275 4.76 26.4775L8.12 32.2875C8.33 32.6725 8.7675 32.795 9.1525 32.6725L13.335 30.9925C14.21 31.6575 15.1375 32.2175 16.17 32.6375L16.8 37.0825C16.8875 37.5025 17.22 37.8 17.64 37.8H24.36C24.78 37.8 25.13 37.5025 25.1825 37.0825L25.8125 32.6375C26.845 32.2175 27.79 31.6575 28.6475 30.9925L32.83 32.6725C33.215 32.8125 33.6525 32.6725 33.8625 32.2875L37.2225 26.4775C37.4325 26.0925 37.345 25.655 37.0125 25.41L33.495 22.645ZM21 27.3C17.535 27.3 14.7 24.465 14.7 21C14.7 17.535 17.535 14.7 21 14.7C24.465 14.7 27.3 17.535 27.3 21C27.3 24.465 24.465 27.3 21 27.3Z" fill="white"/>
</svg>
